<!--

Unity devs pls dont sudoki me :((((

-->


<svg version="1.1"
     width="725" height="1280"
     xmlns="http://www.w3.org/2000/svg">
    <style>

svg
{
    font-family: sans-serif;
    font-size: 16px;
}

rect:not(.background)
{
    width: 250px;
    height: 100px;
    fill: white;
    rx: 10px;
}

path:not(.curve)
{
    fill: white;
}

#frame-header
{
    fill: white;
    font-weight: bold;
    font-size: 30px;
}

.if
{
    height: 112px !important;
    rx: 200px !important;
}

.call
{
    height: 50px !important;
    rx: 0 !important;
}

.curve
{
    stroke: white;
    stroke-width: 3px;
    fill: none;
}

    </style>

    <!-- <rect class="background" width="100%" height="100%" fill="red"/> -->

    <rect x="50" y="10"/>
    <text x="65" y="60">
        <tspan dx="36">Try to wait for target</tspan>
        <tspan x="65" dx="60" dy="1em">frame interval</tspan>
    </text>

    <rect class="background" x="20" y="130" width="640" height="1115" rx="10" fill="rgba(0, 0, 0, 0.5)"/>

    <text id="frame-header" x="485" y="180">New frame</text>

    <path d="m172,114 v27 h-3.5 l5,5 l5,-5 h-3.5 v-27 h-3"/>

    <rect x="50" y="150"/>
    <text x="65" y="180">
        <tspan dx="10">Calculate time between last</tspan>
        <tspan x="65" dx="45" dy="1em">and current frame</tspan>
        <tspan x="65" dx="28" dy="2em">(<tspan font-weight="bold">unscaledDeltaTime</tspan>)</tspan>
    </text>

    <path d="m172,254 v27 h-3.5 l5,5 l5,-5 h-3.5 v-27 h-3"/>

    <rect x="50" y="290"/>
    <text x="65" y="320">
        <tspan dx="28">Increase program time</tspan>
        <tspan x="65" dx="25" dy="1em">by <tspan font-weight="bold">unscaledDeltaTime</tspan></tspan>
        <tspan x="65" dx="46" dy="2em">(<tspan font-weight="bold">unscaledTime</tspan>)</tspan>
    </text>

    <path d="m172,394 v27 h-3.5 l5,5 l5,-5 h-3.5 v-27 h-3"/>

    <rect x="50" y="430"/>
    <text x="65" y="460">
        <tspan dx="3">Redefine <tspan font-weight="bold">unscaledDeltaTime</tspan></tspan>
        <tspan x="65" dx="82" dy="1em">for later</tspan>
        <tspan x="65" dx="67" dy="2em">(<tspan font-weight="bold">deltaTime</tspan>)</tspan>
    </text>

    <path d="m172,534 v27 h-3.5 l5,5 l5,-5 h-3.5 v-27 h-3"/>

    <rect class="if" x="50" y="570"/>
    <text x="65" y="622">
        <tspan dx="20">Is <tspan font-weight="bold">deltaTime</tspan> greater than</tspan>
        <tspan x="65" dx="30" dy="1em"><tspan font-weight="bold">maximumDeltaTime</tspan>?</tspan>
    </text>

    <path d="m305,623 h15 v3 h-15 v-3 m50,0 h15 v-3.5 l5,5 l-5,5 v-3.5 h-15 v-3"/>

    <text x="324" y="630" fill="white">Yes</text>

    <rect x="380" y="575"/>
    <text x="395" y="622">
        <tspan dx="35"><tspan font-weight="bold">deltaTime</tspan> is capped</tspan>
        <tspan x="395" dx="26" dy="1em">to <tspan font-weight="bold">maximumDeltaTime</tspan></tspan>
    </text>

    <path d="m500,686 v15 h3 v-15 h-3 m-150,100 h-30 v-3.5 l-5,5 l5,5 v-3.5 h30 v-3"/>
    <path class="curve" d="m501.5,700.5 c0,50 0,87 -152,87"/>
    
    <path d="m172,686 v15 h3 v-15 h-3 m0,42 v15 h-3.5 l5,5 l5,-5 h-3.5 v-15 h-3"/>

    <text x="164" y="720" fill="white">No</text>

    <rect x="50" y="752"/>
    <text x="65" y="798">
        <tspan dx="48">Scale <tspan font-weight="bold">deltaTime</tspan></tspan>
        <tspan x="65" dx="57" dy="1em">by <tspan font-weight="bold">timeScale</tspan></tspan>
    </text>

    <path d="m172,856 v27 h-3.5 l5,5 l5,-5 h-3.5 v-27 h-3"/>

    <rect x="50" y="892"/>
    <text x="65" y="925">
        <tspan dx="-5">Increase <tspan font-weight="bold">timeScale-dependent</tspan></tspan>
        <tspan x="65" dx="13" dy="1em">program time by <tspan font-weight="bold">deltaTime</tspan></tspan>
        <tspan x="65" dx="86" dy="2em">(<tspan font-weight="bold">time</tspan>)</tspan>
    </text>

    <path d="m172,996 v27 h-3.5 l5,5 l5,-5 h-3.5 v-27 h-3"/>

    <rect class="call" x="50" y="1032"/>
    <text x="65" y="1062">
        <tspan dx="35" font-weight="bold">Invoke update tasks</tspan>
    </text>

    <path d="m172,1086 v27 h-3.5 l5,5 l5,-5 h-3.5 v-27 h-3"/>

    <rect x="50" y="1123"/>
    <text x="65" y="1154">
        <tspan dx="30">Increment <tspan font-weight="bold">frameCount</tspan></tspan>
        <tspan x="65" dx="40" dy="1em">since program start</tspan>
        <tspan x="65" dx="60" dy="2em">(<tspan font-weight="bold">frameCount</tspan>)</tspan>
    </text>

    <path d="m172,1227 v30 c0,0 0,3 3,3 h525 c0,0, 3,0 3,-3 v-1200 c0,0 0,-3 -3,-3 h-390 v-4 l-5.5,5.5 l5.5,5.5 v-4 h388 c0,0 2,0 2,2 v1196 c0,0 0,2 -2,2 h-521 c0,0 -2,0 -2,-2 v-28 h-3"/>
</svg>